<svg width="1440" height="85" viewBox="0 0 1440 85" fill="none" xmlns="http://www.w3.org/2000/svg">
<g clip-path="url(#clip0_2521_1924)">
<path fill-rule="evenodd" clip-rule="evenodd" d="M0.0633087 -632.04C0.0633087 -632.04 206.705 -645.45 469.193 -632.04C682.387 -621.148 850.298 -608.731 982.716 -608.731C1308.21 -608.731 1439.85 -632.04 1439.85 -632.04V-510.862H0.0633087V-632.04Z" fill="white"/>
<path fill-rule="evenodd" clip-rule="evenodd" d="M1058.63 -600.449C1058.63 -600.449 1231.5 -585.805 1436.5 -612.731L1439.85 -632.04C1240.44 -593.562 1058.63 -600.449 1058.63 -600.449Z" fill="white"/>
<path fill-rule="evenodd" clip-rule="evenodd" d="M0.0633087 -625.805H1439.85V62.0231C1439.85 62.0231 1277.94 55.1174 878.333 74.6782C478.726 94.239 0.0633087 62.0231 0.0633087 62.0231V-625.805Z" fill="white"/>
<path fill-rule="evenodd" clip-rule="evenodd" d="M-59.9526 59.078C-31.1073 63.3839 66.1619 71.5313 140.733 76.1527C222.365 81.2119 280.149 82.5531 272.718 82.3388C258.499 81.9286 93.4499 90.7802 2.28297 77.0362C-88.884 63.2921 -120.375 50.0584 -59.9526 59.078Z" fill="white"/>
</g>
<defs>
<clipPath id="clip0_2521_1924">
<rect width="1440" height="85" fill="white"/>
</clipPath>
</defs>
</svg>
